<mxfile host="app.diagrams.net" agent="Mozilla/5.0 (Windows NT 10.0; Win64; x64; rv:130.0) Gecko/20100101 Firefox/130.0" version="24.7.16">
  <diagram id="C5RBs43oDa-KdzZeNtuy" name="Page-1">
    <mxGraphModel dx="1857" dy="1282" grid="1" gridSize="10" guides="1" tooltips="1" connect="1" arrows="1" fold="1" page="1" pageScale="1" pageWidth="1920" pageHeight="1200" math="0" shadow="0">
      <root>
        <mxCell id="WIyWlLk6GJQsqaUBKTNV-0" />
        <mxCell id="WIyWlLk6GJQsqaUBKTNV-1" parent="WIyWlLk6GJQsqaUBKTNV-0" />
        <mxCell id="RODY-y2PRNk4jqzbHSB5-1" value="Start" style="ellipse;whiteSpace=wrap;html=1;fillColor=#fad9d5;strokeColor=#ae4132;" vertex="1" parent="WIyWlLk6GJQsqaUBKTNV-1">
          <mxGeometry x="940" y="550" width="120" height="60" as="geometry" />
        </mxCell>
        <mxCell id="RODY-y2PRNk4jqzbHSB5-2" value="" style="endArrow=classic;html=1;rounded=0;entryX=0.501;entryY=1.064;entryDx=0;entryDy=0;entryPerimeter=0;" edge="1" parent="WIyWlLk6GJQsqaUBKTNV-1" target="RODY-y2PRNk4jqzbHSB5-3">
          <mxGeometry width="50" height="50" relative="1" as="geometry">
            <mxPoint x="1000" y="550" as="sourcePoint" />
            <mxPoint x="1000" y="470" as="targetPoint" />
          </mxGeometry>
        </mxCell>
        <mxCell id="RODY-y2PRNk4jqzbHSB5-3" value="&lt;div&gt;Workouts&lt;/div&gt;" style="rounded=1;whiteSpace=wrap;html=1;fillColor=#b1ddf0;strokeColor=#10739e;" vertex="1" parent="WIyWlLk6GJQsqaUBKTNV-1">
          <mxGeometry x="940" y="420" width="120" height="60" as="geometry" />
        </mxCell>
        <mxCell id="RODY-y2PRNk4jqzbHSB5-5" value="" style="endArrow=classic;html=1;rounded=0;" edge="1" parent="WIyWlLk6GJQsqaUBKTNV-1">
          <mxGeometry width="50" height="50" relative="1" as="geometry">
            <mxPoint x="1060" y="580" as="sourcePoint" />
            <mxPoint x="1140" y="580" as="targetPoint" />
          </mxGeometry>
        </mxCell>
        <mxCell id="RODY-y2PRNk4jqzbHSB5-6" value="" style="endArrow=classic;html=1;rounded=0;" edge="1" parent="WIyWlLk6GJQsqaUBKTNV-1">
          <mxGeometry width="50" height="50" relative="1" as="geometry">
            <mxPoint x="940" y="579.71" as="sourcePoint" />
            <mxPoint x="860" y="580" as="targetPoint" />
          </mxGeometry>
        </mxCell>
        <mxCell id="RODY-y2PRNk4jqzbHSB5-7" value="" style="endArrow=classic;html=1;rounded=0;" edge="1" parent="WIyWlLk6GJQsqaUBKTNV-1">
          <mxGeometry width="50" height="50" relative="1" as="geometry">
            <mxPoint x="1000" y="610" as="sourcePoint" />
            <mxPoint x="1000" y="680" as="targetPoint" />
          </mxGeometry>
        </mxCell>
        <mxCell id="RODY-y2PRNk4jqzbHSB5-8" value="Favorites" style="rounded=1;whiteSpace=wrap;html=1;fillColor=#b1ddf0;strokeColor=#10739e;" vertex="1" parent="WIyWlLk6GJQsqaUBKTNV-1">
          <mxGeometry x="1140" y="550" width="120" height="60" as="geometry" />
        </mxCell>
        <mxCell id="RODY-y2PRNk4jqzbHSB5-9" value="Featured" style="rounded=1;whiteSpace=wrap;html=1;fillColor=#b1ddf0;strokeColor=#10739e;" vertex="1" parent="WIyWlLk6GJQsqaUBKTNV-1">
          <mxGeometry x="740" y="550" width="120" height="60" as="geometry" />
        </mxCell>
        <mxCell id="RODY-y2PRNk4jqzbHSB5-10" value="Create" style="rounded=1;whiteSpace=wrap;html=1;fillColor=#b1ddf0;strokeColor=#10739e;" vertex="1" parent="WIyWlLk6GJQsqaUBKTNV-1">
          <mxGeometry x="940" y="680" width="120" height="60" as="geometry" />
        </mxCell>
        <mxCell id="RODY-y2PRNk4jqzbHSB5-11" value="" style="curved=1;endArrow=classic;html=1;rounded=0;" edge="1" parent="WIyWlLk6GJQsqaUBKTNV-1">
          <mxGeometry width="50" height="50" relative="1" as="geometry">
            <mxPoint x="940" y="450" as="sourcePoint" />
            <mxPoint x="700" y="370" as="targetPoint" />
            <Array as="points">
              <mxPoint x="910" y="450" />
              <mxPoint x="700" y="450" />
            </Array>
          </mxGeometry>
        </mxCell>
        <mxCell id="RODY-y2PRNk4jqzbHSB5-12" value="By Workout Type" style="rounded=1;whiteSpace=wrap;html=1;fillColor=#588CA6;strokeColor=#0B506E;" vertex="1" parent="WIyWlLk6GJQsqaUBKTNV-1">
          <mxGeometry x="640" y="310" width="120" height="60" as="geometry" />
        </mxCell>
        <mxCell id="RODY-y2PRNk4jqzbHSB5-13" value="" style="endArrow=classic;html=1;rounded=0;" edge="1" parent="WIyWlLk6GJQsqaUBKTNV-1">
          <mxGeometry width="50" height="50" relative="1" as="geometry">
            <mxPoint x="999.71" y="420" as="sourcePoint" />
            <mxPoint x="1000" y="370" as="targetPoint" />
          </mxGeometry>
        </mxCell>
        <mxCell id="RODY-y2PRNk4jqzbHSB5-15" value="" style="curved=1;endArrow=classic;html=1;rounded=0;" edge="1" parent="WIyWlLk6GJQsqaUBKTNV-1">
          <mxGeometry width="50" height="50" relative="1" as="geometry">
            <mxPoint x="1060" y="450" as="sourcePoint" />
            <mxPoint x="1300" y="370" as="targetPoint" />
            <Array as="points">
              <mxPoint x="1090" y="450" />
              <mxPoint x="1300" y="450" />
            </Array>
          </mxGeometry>
        </mxCell>
        <mxCell id="RODY-y2PRNk4jqzbHSB5-16" value="By Duration" style="rounded=1;whiteSpace=wrap;html=1;fillColor=#588CA6;strokeColor=#0B506E;" vertex="1" parent="WIyWlLk6GJQsqaUBKTNV-1">
          <mxGeometry x="940" y="310" width="120" height="60" as="geometry" />
        </mxCell>
        <mxCell id="RODY-y2PRNk4jqzbHSB5-17" value="By Body Part" style="rounded=1;whiteSpace=wrap;html=1;fillColor=#588CA6;strokeColor=#0B506E;" vertex="1" parent="WIyWlLk6GJQsqaUBKTNV-1">
          <mxGeometry x="1240" y="310" width="120" height="60" as="geometry" />
        </mxCell>
        <mxCell id="RODY-y2PRNk4jqzbHSB5-18" value="" style="curved=1;endArrow=classic;html=1;rounded=0;" edge="1" parent="WIyWlLk6GJQsqaUBKTNV-1">
          <mxGeometry width="50" height="50" relative="1" as="geometry">
            <mxPoint x="640" y="340" as="sourcePoint" />
            <mxPoint x="400" y="260" as="targetPoint" />
            <Array as="points">
              <mxPoint x="610" y="340" />
              <mxPoint x="400" y="340" />
            </Array>
          </mxGeometry>
        </mxCell>
        <mxCell id="RODY-y2PRNk4jqzbHSB5-19" value="&lt;div&gt;Bodyweight&lt;/div&gt;" style="rounded=1;whiteSpace=wrap;html=1;fillColor=#2B4552;strokeColor=#0B506E;fontColor=#FAFAFA;" vertex="1" parent="WIyWlLk6GJQsqaUBKTNV-1">
          <mxGeometry x="340" y="200" width="120" height="60" as="geometry" />
        </mxCell>
        <mxCell id="RODY-y2PRNk4jqzbHSB5-20" value="Cardio" style="rounded=1;whiteSpace=wrap;html=1;fillColor=#2B4552;strokeColor=#0B506E;fontColor=#FAFAFA;" vertex="1" parent="WIyWlLk6GJQsqaUBKTNV-1">
          <mxGeometry x="500" y="200" width="120" height="60" as="geometry" />
        </mxCell>
        <mxCell id="RODY-y2PRNk4jqzbHSB5-21" value="Free Weights" style="rounded=1;whiteSpace=wrap;html=1;fillColor=#2B4552;strokeColor=#0B506E;fontColor=#FAFAFA;" vertex="1" parent="WIyWlLk6GJQsqaUBKTNV-1">
          <mxGeometry x="670" y="200" width="120" height="60" as="geometry" />
        </mxCell>
        <mxCell id="RODY-y2PRNk4jqzbHSB5-22" value="" style="curved=1;endArrow=classic;html=1;rounded=0;entryX=0.5;entryY=1;entryDx=0;entryDy=0;" edge="1" parent="WIyWlLk6GJQsqaUBKTNV-1" target="RODY-y2PRNk4jqzbHSB5-20">
          <mxGeometry width="50" height="50" relative="1" as="geometry">
            <mxPoint x="640" y="320" as="sourcePoint" />
            <mxPoint x="690" y="270" as="targetPoint" />
            <Array as="points">
              <mxPoint x="560" y="320" />
            </Array>
          </mxGeometry>
        </mxCell>
        <mxCell id="RODY-y2PRNk4jqzbHSB5-23" value="" style="curved=1;endArrow=classic;html=1;rounded=0;entryX=0.5;entryY=1;entryDx=0;entryDy=0;" edge="1" parent="WIyWlLk6GJQsqaUBKTNV-1">
          <mxGeometry width="50" height="50" relative="1" as="geometry">
            <mxPoint x="700" y="310" as="sourcePoint" />
            <mxPoint x="740" y="260" as="targetPoint" />
            <Array as="points">
              <mxPoint x="730" y="300" />
            </Array>
          </mxGeometry>
        </mxCell>
        <mxCell id="RODY-y2PRNk4jqzbHSB5-30" value="" style="curved=1;endArrow=classic;html=1;rounded=0;" edge="1" parent="WIyWlLk6GJQsqaUBKTNV-1">
          <mxGeometry width="50" height="50" relative="1" as="geometry">
            <mxPoint x="1360" y="340" as="sourcePoint" />
            <mxPoint x="1600" y="260" as="targetPoint" />
            <Array as="points">
              <mxPoint x="1390" y="340" />
              <mxPoint x="1600" y="340" />
            </Array>
          </mxGeometry>
        </mxCell>
        <mxCell id="RODY-y2PRNk4jqzbHSB5-31" value="" style="curved=1;endArrow=classic;html=1;rounded=0;entryX=0.5;entryY=1;entryDx=0;entryDy=0;" edge="1" parent="WIyWlLk6GJQsqaUBKTNV-1">
          <mxGeometry width="50" height="50" relative="1" as="geometry">
            <mxPoint x="1360" y="320" as="sourcePoint" />
            <mxPoint x="1440" y="260" as="targetPoint" />
            <Array as="points">
              <mxPoint x="1440" y="320" />
            </Array>
          </mxGeometry>
        </mxCell>
        <mxCell id="RODY-y2PRNk4jqzbHSB5-32" value="" style="curved=1;endArrow=classic;html=1;rounded=0;entryX=0.5;entryY=1;entryDx=0;entryDy=0;" edge="1" parent="WIyWlLk6GJQsqaUBKTNV-1">
          <mxGeometry width="50" height="50" relative="1" as="geometry">
            <mxPoint x="1310" y="310" as="sourcePoint" />
            <mxPoint x="1270" y="260" as="targetPoint" />
            <Array as="points">
              <mxPoint x="1280" y="300" />
            </Array>
          </mxGeometry>
        </mxCell>
        <mxCell id="RODY-y2PRNk4jqzbHSB5-33" value="Arms" style="rounded=1;whiteSpace=wrap;html=1;fillColor=#2B4552;strokeColor=#0B506E;fontColor=#FAFAFA;" vertex="1" parent="WIyWlLk6GJQsqaUBKTNV-1">
          <mxGeometry x="1210" y="200" width="120" height="60" as="geometry" />
        </mxCell>
        <mxCell id="RODY-y2PRNk4jqzbHSB5-34" value="Chest" style="rounded=1;whiteSpace=wrap;html=1;fillColor=#2B4552;strokeColor=#0B506E;fontColor=#FAFAFA;" vertex="1" parent="WIyWlLk6GJQsqaUBKTNV-1">
          <mxGeometry x="1380" y="200" width="120" height="60" as="geometry" />
        </mxCell>
        <mxCell id="RODY-y2PRNk4jqzbHSB5-35" value="Back" style="rounded=1;whiteSpace=wrap;html=1;fillColor=#2B4552;strokeColor=#0B506E;fontColor=#FAFAFA;" vertex="1" parent="WIyWlLk6GJQsqaUBKTNV-1">
          <mxGeometry x="1540" y="200" width="120" height="60" as="geometry" />
        </mxCell>
        <mxCell id="RODY-y2PRNk4jqzbHSB5-36" value="" style="curved=1;endArrow=classic;html=1;rounded=0;" edge="1" parent="WIyWlLk6GJQsqaUBKTNV-1">
          <mxGeometry width="50" height="50" relative="1" as="geometry">
            <mxPoint x="1360" y="360" as="sourcePoint" />
            <mxPoint x="1770" y="260" as="targetPoint" />
            <Array as="points">
              <mxPoint x="1390" y="360" />
              <mxPoint x="1770" y="360" />
            </Array>
          </mxGeometry>
        </mxCell>
        <mxCell id="RODY-y2PRNk4jqzbHSB5-37" value="Legs" style="rounded=1;whiteSpace=wrap;html=1;fillColor=#2B4552;strokeColor=#0B506E;fontColor=#FAFAFA;" vertex="1" parent="WIyWlLk6GJQsqaUBKTNV-1">
          <mxGeometry x="1710" y="200" width="120" height="60" as="geometry" />
        </mxCell>
        <mxCell id="RODY-y2PRNk4jqzbHSB5-38" value="" style="curved=1;endArrow=classic;html=1;rounded=0;entryX=0.5;entryY=1;entryDx=0;entryDy=0;" edge="1" parent="WIyWlLk6GJQsqaUBKTNV-1" target="RODY-y2PRNk4jqzbHSB5-43">
          <mxGeometry width="50" height="50" relative="1" as="geometry">
            <mxPoint x="1060" y="320" as="sourcePoint" />
            <mxPoint x="1110" y="260" as="targetPoint" />
            <Array as="points">
              <mxPoint x="1090" y="310" />
            </Array>
          </mxGeometry>
        </mxCell>
        <mxCell id="RODY-y2PRNk4jqzbHSB5-39" value="" style="curved=1;endArrow=classic;html=1;rounded=0;entryX=0.5;entryY=1;entryDx=0;entryDy=0;" edge="1" parent="WIyWlLk6GJQsqaUBKTNV-1" target="RODY-y2PRNk4jqzbHSB5-41">
          <mxGeometry width="50" height="50" relative="1" as="geometry">
            <mxPoint x="940" y="320" as="sourcePoint" />
            <mxPoint x="890" y="260" as="targetPoint" />
            <Array as="points">
              <mxPoint x="910" y="310" />
            </Array>
          </mxGeometry>
        </mxCell>
        <mxCell id="RODY-y2PRNk4jqzbHSB5-40" value="" style="endArrow=classic;html=1;rounded=0;entryX=0.5;entryY=1;entryDx=0;entryDy=0;" edge="1" parent="WIyWlLk6GJQsqaUBKTNV-1" target="RODY-y2PRNk4jqzbHSB5-42">
          <mxGeometry width="50" height="50" relative="1" as="geometry">
            <mxPoint x="999.6700000000001" y="310" as="sourcePoint" />
            <mxPoint x="999.96" y="260" as="targetPoint" />
          </mxGeometry>
        </mxCell>
        <mxCell id="RODY-y2PRNk4jqzbHSB5-41" value="30 Minutes" style="rounded=1;whiteSpace=wrap;html=1;fillColor=#2B4552;strokeColor=#0B506E;fontColor=#FAFAFA;" vertex="1" parent="WIyWlLk6GJQsqaUBKTNV-1">
          <mxGeometry x="800" y="80" width="120" height="60" as="geometry" />
        </mxCell>
        <mxCell id="RODY-y2PRNk4jqzbHSB5-42" value="60 Minutes" style="rounded=1;whiteSpace=wrap;html=1;fillColor=#2B4552;strokeColor=#0B506E;fontColor=#FAFAFA;" vertex="1" parent="WIyWlLk6GJQsqaUBKTNV-1">
          <mxGeometry x="940" y="20" width="120" height="60" as="geometry" />
        </mxCell>
        <mxCell id="RODY-y2PRNk4jqzbHSB5-43" value="90 Minutes" style="rounded=1;whiteSpace=wrap;html=1;fillColor=#2B4552;strokeColor=#0B506E;fontColor=#FAFAFA;" vertex="1" parent="WIyWlLk6GJQsqaUBKTNV-1">
          <mxGeometry x="1080" y="80" width="120" height="60" as="geometry" />
        </mxCell>
        <mxCell id="RODY-y2PRNk4jqzbHSB5-44" value="" style="curved=1;endArrow=classic;html=1;rounded=0;" edge="1" parent="WIyWlLk6GJQsqaUBKTNV-1">
          <mxGeometry width="50" height="50" relative="1" as="geometry">
            <mxPoint x="740" y="570" as="sourcePoint" />
            <mxPoint x="520" y="520" as="targetPoint" />
            <Array as="points">
              <mxPoint x="690" y="570" />
              <mxPoint x="670" y="510" />
            </Array>
          </mxGeometry>
        </mxCell>
        <mxCell id="RODY-y2PRNk4jqzbHSB5-45" value="" style="curved=1;endArrow=classic;html=1;rounded=0;" edge="1" parent="WIyWlLk6GJQsqaUBKTNV-1">
          <mxGeometry width="50" height="50" relative="1" as="geometry">
            <mxPoint x="740" y="590" as="sourcePoint" />
            <mxPoint x="520" y="640" as="targetPoint" />
            <Array as="points">
              <mxPoint x="690" y="590" />
              <mxPoint x="670" y="650" />
            </Array>
          </mxGeometry>
        </mxCell>
        <mxCell id="RODY-y2PRNk4jqzbHSB5-46" value="Workout of The Week" style="rounded=1;whiteSpace=wrap;html=1;fillColor=#588CA6;strokeColor=#0B506E;" vertex="1" parent="WIyWlLk6GJQsqaUBKTNV-1">
          <mxGeometry x="380" y="490" width="140" height="60" as="geometry" />
        </mxCell>
        <mxCell id="RODY-y2PRNk4jqzbHSB5-48" value="&lt;div&gt;Workout of The Day&lt;/div&gt;" style="rounded=1;whiteSpace=wrap;html=1;fillColor=#588CA6;strokeColor=#0B506E;" vertex="1" parent="WIyWlLk6GJQsqaUBKTNV-1">
          <mxGeometry x="380" y="610" width="140" height="60" as="geometry" />
        </mxCell>
        <mxCell id="RODY-y2PRNk4jqzbHSB5-49" value="List of User&#39;s Favorite Workouts" style="rounded=1;whiteSpace=wrap;html=1;fillColor=#588CA6;strokeColor=#0B506E;" vertex="1" parent="WIyWlLk6GJQsqaUBKTNV-1">
          <mxGeometry x="1440" y="550" width="140" height="60" as="geometry" />
        </mxCell>
        <mxCell id="RODY-y2PRNk4jqzbHSB5-50" value="" style="endArrow=classic;html=1;rounded=0;" edge="1" parent="WIyWlLk6GJQsqaUBKTNV-1">
          <mxGeometry width="50" height="50" relative="1" as="geometry">
            <mxPoint x="1260" y="579.47" as="sourcePoint" />
            <mxPoint x="1440" y="580" as="targetPoint" />
          </mxGeometry>
        </mxCell>
        <mxCell id="RODY-y2PRNk4jqzbHSB5-51" value="" style="endArrow=classic;html=1;rounded=0;" edge="1" parent="WIyWlLk6GJQsqaUBKTNV-1">
          <mxGeometry width="50" height="50" relative="1" as="geometry">
            <mxPoint x="999.47" y="740" as="sourcePoint" />
            <mxPoint x="999.47" y="810" as="targetPoint" />
          </mxGeometry>
        </mxCell>
        <mxCell id="RODY-y2PRNk4jqzbHSB5-74" value="User has no created workouts yet" style="edgeLabel;html=1;align=center;verticalAlign=middle;resizable=0;points=[];" vertex="1" connectable="0" parent="RODY-y2PRNk4jqzbHSB5-51">
          <mxGeometry x="0.3329" y="2" relative="1" as="geometry">
            <mxPoint as="offset" />
          </mxGeometry>
        </mxCell>
        <mxCell id="RODY-y2PRNk4jqzbHSB5-52" value="&lt;font style=&quot;font-size: 12px;&quot;&gt;Prompts user to enter a custom workout name&lt;/font&gt;" style="rhombus;whiteSpace=wrap;html=1;fillColor=#6B371E;strokeColor=#260B00;fontColor=#ffffff;" vertex="1" parent="WIyWlLk6GJQsqaUBKTNV-1">
          <mxGeometry x="920" y="810" width="160" height="80" as="geometry" />
        </mxCell>
        <mxCell id="RODY-y2PRNk4jqzbHSB5-53" value="" style="curved=1;endArrow=classic;html=1;rounded=0;" edge="1" parent="WIyWlLk6GJQsqaUBKTNV-1">
          <mxGeometry width="50" height="50" relative="1" as="geometry">
            <mxPoint x="960" y="870" as="sourcePoint" />
            <mxPoint x="840" y="920" as="targetPoint" />
            <Array as="points">
              <mxPoint x="910" y="870" />
              <mxPoint x="960" y="920" />
            </Array>
          </mxGeometry>
        </mxCell>
        <mxCell id="RODY-y2PRNk4jqzbHSB5-54" value="User enters an empty name" style="edgeLabel;html=1;align=center;verticalAlign=middle;resizable=0;points=[];" vertex="1" connectable="0" parent="RODY-y2PRNk4jqzbHSB5-53">
          <mxGeometry x="-0.2041" y="-7" relative="1" as="geometry">
            <mxPoint as="offset" />
          </mxGeometry>
        </mxCell>
        <mxCell id="RODY-y2PRNk4jqzbHSB5-55" value="User is given with an error and is sent back workout name input" style="rounded=1;whiteSpace=wrap;html=1;fillColor=#588CA6;strokeColor=#0B506E;" vertex="1" parent="WIyWlLk6GJQsqaUBKTNV-1">
          <mxGeometry x="700" y="890" width="140" height="60" as="geometry" />
        </mxCell>
        <mxCell id="RODY-y2PRNk4jqzbHSB5-56" value="" style="curved=1;endArrow=classic;html=1;rounded=0;entryX=0;entryY=0.5;entryDx=0;entryDy=0;" edge="1" parent="WIyWlLk6GJQsqaUBKTNV-1" target="RODY-y2PRNk4jqzbHSB5-52">
          <mxGeometry width="50" height="50" relative="1" as="geometry">
            <mxPoint x="770" y="890" as="sourcePoint" />
            <mxPoint x="820" y="840" as="targetPoint" />
            <Array as="points">
              <mxPoint x="770" y="840" />
            </Array>
          </mxGeometry>
        </mxCell>
        <mxCell id="RODY-y2PRNk4jqzbHSB5-57" value="" style="curved=1;endArrow=classic;html=1;rounded=0;" edge="1" parent="WIyWlLk6GJQsqaUBKTNV-1">
          <mxGeometry width="50" height="50" relative="1" as="geometry">
            <mxPoint x="1080" y="850" as="sourcePoint" />
            <mxPoint x="1200" y="900" as="targetPoint" />
            <Array as="points">
              <mxPoint x="1130" y="850" />
              <mxPoint x="1080" y="900" />
            </Array>
          </mxGeometry>
        </mxCell>
        <mxCell id="RODY-y2PRNk4jqzbHSB5-58" value="User enters a workout name" style="edgeLabel;html=1;align=center;verticalAlign=middle;resizable=0;points=[];" vertex="1" connectable="0" parent="RODY-y2PRNk4jqzbHSB5-57">
          <mxGeometry x="-0.2041" y="-7" relative="1" as="geometry">
            <mxPoint as="offset" />
          </mxGeometry>
        </mxCell>
        <mxCell id="RODY-y2PRNk4jqzbHSB5-63" value="" style="edgeStyle=orthogonalEdgeStyle;rounded=0;orthogonalLoop=1;jettySize=auto;html=1;" edge="1" parent="WIyWlLk6GJQsqaUBKTNV-1" source="RODY-y2PRNk4jqzbHSB5-59" target="RODY-y2PRNk4jqzbHSB5-60">
          <mxGeometry relative="1" as="geometry" />
        </mxCell>
        <mxCell id="RODY-y2PRNk4jqzbHSB5-82" value="" style="edgeStyle=orthogonalEdgeStyle;rounded=0;orthogonalLoop=1;jettySize=auto;html=1;" edge="1" parent="WIyWlLk6GJQsqaUBKTNV-1" source="RODY-y2PRNk4jqzbHSB5-59" target="RODY-y2PRNk4jqzbHSB5-60">
          <mxGeometry relative="1" as="geometry" />
        </mxCell>
        <mxCell id="RODY-y2PRNk4jqzbHSB5-59" value="User is given with an error and is sent back workout name input" style="rounded=1;whiteSpace=wrap;html=1;fillColor=#588CA6;strokeColor=#0B506E;" vertex="1" parent="WIyWlLk6GJQsqaUBKTNV-1">
          <mxGeometry x="1200" y="870" width="140" height="60" as="geometry" />
        </mxCell>
        <mxCell id="RODY-y2PRNk4jqzbHSB5-60" value="Add workout button" style="rhombus;whiteSpace=wrap;html=1;fillColor=#08384D;strokeColor=#260B00;fontColor=#ffffff;aspect=fixed;" vertex="1" parent="WIyWlLk6GJQsqaUBKTNV-1">
          <mxGeometry x="1380" y="870" width="120" height="60" as="geometry" />
        </mxCell>
        <mxCell id="RODY-y2PRNk4jqzbHSB5-61" value="" style="endArrow=classic;html=1;rounded=0;entryX=0;entryY=0.5;entryDx=0;entryDy=0;" edge="1" parent="WIyWlLk6GJQsqaUBKTNV-1" target="RODY-y2PRNk4jqzbHSB5-60">
          <mxGeometry width="50" height="50" relative="1" as="geometry">
            <mxPoint x="1340" y="899.6800000000001" as="sourcePoint" />
            <mxPoint x="1370" y="900" as="targetPoint" />
          </mxGeometry>
        </mxCell>
        <mxCell id="RODY-y2PRNk4jqzbHSB5-62" value="&lt;font color=&quot;#f5f5f5&quot;&gt;List of all workouts&lt;/font&gt;" style="rounded=1;whiteSpace=wrap;html=1;fillColor=#515B99;strokeColor=#0B506E;" vertex="1" parent="WIyWlLk6GJQsqaUBKTNV-1">
          <mxGeometry x="1580" y="870" width="140" height="60" as="geometry" />
        </mxCell>
        <mxCell id="RODY-y2PRNk4jqzbHSB5-64" value="" style="endArrow=classic;html=1;rounded=0;entryX=0;entryY=0.5;entryDx=0;entryDy=0;exitX=1;exitY=0.5;exitDx=0;exitDy=0;" edge="1" parent="WIyWlLk6GJQsqaUBKTNV-1" source="RODY-y2PRNk4jqzbHSB5-60" target="RODY-y2PRNk4jqzbHSB5-62">
          <mxGeometry width="50" height="50" relative="1" as="geometry">
            <mxPoint x="1510" y="899.6" as="sourcePoint" />
            <mxPoint x="1550" y="899.92" as="targetPoint" />
          </mxGeometry>
        </mxCell>
        <mxCell id="RODY-y2PRNk4jqzbHSB5-65" value="&lt;font color=&quot;#f5f5f5&quot;&gt;Sorted by alphabetical order&lt;br&gt;&lt;/font&gt;" style="rounded=1;whiteSpace=wrap;html=1;fillColor=#352857;strokeColor=#0B506E;" vertex="1" parent="WIyWlLk6GJQsqaUBKTNV-1">
          <mxGeometry x="1770" y="870" width="140" height="60" as="geometry" />
        </mxCell>
        <mxCell id="RODY-y2PRNk4jqzbHSB5-66" value="&lt;font color=&quot;#f5f5f5&quot;&gt;Sorted by body part&lt;br&gt;&lt;/font&gt;" style="rounded=1;whiteSpace=wrap;html=1;fillColor=#352857;strokeColor=#0B506E;" vertex="1" parent="WIyWlLk6GJQsqaUBKTNV-1">
          <mxGeometry x="1640" y="760" width="140" height="60" as="geometry" />
        </mxCell>
        <mxCell id="RODY-y2PRNk4jqzbHSB5-68" value="" style="endArrow=classic;html=1;rounded=0;entryX=0;entryY=0.5;entryDx=0;entryDy=0;exitX=1;exitY=0.5;exitDx=0;exitDy=0;" edge="1" parent="WIyWlLk6GJQsqaUBKTNV-1" target="RODY-y2PRNk4jqzbHSB5-65">
          <mxGeometry width="50" height="50" relative="1" as="geometry">
            <mxPoint x="1720" y="899.69" as="sourcePoint" />
            <mxPoint x="1800" y="899.69" as="targetPoint" />
          </mxGeometry>
        </mxCell>
        <mxCell id="RODY-y2PRNk4jqzbHSB5-69" value="Add selected exercises" style="rhombus;whiteSpace=wrap;html=1;fillColor=#41124D;strokeColor=#260B00;fontColor=#ffffff;aspect=fixed;" vertex="1" parent="WIyWlLk6GJQsqaUBKTNV-1">
          <mxGeometry x="1770" y="660" width="120" height="60" as="geometry" />
        </mxCell>
        <mxCell id="RODY-y2PRNk4jqzbHSB5-71" value="" style="curved=1;endArrow=classic;html=1;rounded=0;entryX=1;entryY=1;entryDx=0;entryDy=0;" edge="1" parent="WIyWlLk6GJQsqaUBKTNV-1" target="RODY-y2PRNk4jqzbHSB5-69">
          <mxGeometry width="50" height="50" relative="1" as="geometry">
            <mxPoint x="1840" y="870.0000000000005" as="sourcePoint" />
            <mxPoint x="1928.2800000000002" y="518.22" as="targetPoint" />
            <Array as="points">
              <mxPoint x="1890" y="870.0000000000005" />
            </Array>
          </mxGeometry>
        </mxCell>
        <mxCell id="RODY-y2PRNk4jqzbHSB5-73" value="" style="curved=1;endArrow=classic;html=1;rounded=0;entryX=0;entryY=1;entryDx=0;entryDy=0;" edge="1" parent="WIyWlLk6GJQsqaUBKTNV-1" target="RODY-y2PRNk4jqzbHSB5-69">
          <mxGeometry width="50" height="50" relative="1" as="geometry">
            <mxPoint x="1710" y="760" as="sourcePoint" />
            <mxPoint x="1760" y="710" as="targetPoint" />
            <Array as="points">
              <mxPoint x="1760" y="760" />
              <mxPoint x="1740" y="720" />
            </Array>
          </mxGeometry>
        </mxCell>
        <mxCell id="RODY-y2PRNk4jqzbHSB5-75" value="Displays a dashboard of user&#39;s created workouts" style="rounded=1;whiteSpace=wrap;html=1;fillColor=#588CA6;strokeColor=#0B506E;shadow=0;" vertex="1" parent="WIyWlLk6GJQsqaUBKTNV-1">
          <mxGeometry x="1210" y="680" width="140" height="60" as="geometry" />
        </mxCell>
        <mxCell id="RODY-y2PRNk4jqzbHSB5-76" value="" style="endArrow=classic;html=1;rounded=0;" edge="1" parent="WIyWlLk6GJQsqaUBKTNV-1">
          <mxGeometry width="50" height="50" relative="1" as="geometry">
            <mxPoint x="1060" y="709.5699999999999" as="sourcePoint" />
            <mxPoint x="1210" y="710" as="targetPoint" />
          </mxGeometry>
        </mxCell>
        <mxCell id="RODY-y2PRNk4jqzbHSB5-77" value="&lt;div&gt;User already has&lt;/div&gt;&lt;div&gt;created workouts&lt;br&gt;&lt;/div&gt;" style="edgeLabel;html=1;align=center;verticalAlign=middle;resizable=0;points=[];" vertex="1" connectable="0" parent="RODY-y2PRNk4jqzbHSB5-76">
          <mxGeometry x="-0.0229" y="-3" relative="1" as="geometry">
            <mxPoint as="offset" />
          </mxGeometry>
        </mxCell>
        <mxCell id="RODY-y2PRNk4jqzbHSB5-80" value="&lt;div&gt;Create new&amp;nbsp;&lt;/div&gt;&lt;div&gt;workout button&lt;br&gt;&lt;/div&gt;" style="rhombus;whiteSpace=wrap;html=1;fillColor=#08384D;strokeColor=#260B00;fontColor=#ffffff;aspect=fixed;" vertex="1" parent="WIyWlLk6GJQsqaUBKTNV-1">
          <mxGeometry x="1450" y="700" width="120" height="60" as="geometry" />
        </mxCell>
        <mxCell id="RODY-y2PRNk4jqzbHSB5-81" value="" style="curved=1;endArrow=classic;html=1;rounded=0;entryX=1;entryY=0;entryDx=0;entryDy=0;exitX=1;exitY=0.5;exitDx=0;exitDy=0;" edge="1" parent="WIyWlLk6GJQsqaUBKTNV-1" source="RODY-y2PRNk4jqzbHSB5-80" target="RODY-y2PRNk4jqzbHSB5-52">
          <mxGeometry width="50" height="50" relative="1" as="geometry">
            <mxPoint x="1460" y="740" as="sourcePoint" />
            <mxPoint x="1410" y="790" as="targetPoint" />
            <Array as="points">
              <mxPoint x="1670" y="770" />
              <mxPoint x="1270" y="800" />
              <mxPoint x="1070" y="810" />
            </Array>
          </mxGeometry>
        </mxCell>
        <mxCell id="RODY-y2PRNk4jqzbHSB5-83" value="" style="endArrow=classic;html=1;rounded=0;entryX=0;entryY=0.5;entryDx=0;entryDy=0;" edge="1" parent="WIyWlLk6GJQsqaUBKTNV-1" target="RODY-y2PRNk4jqzbHSB5-80">
          <mxGeometry width="50" height="50" relative="1" as="geometry">
            <mxPoint x="1350" y="709.57" as="sourcePoint" />
            <mxPoint x="1390" y="709.89" as="targetPoint" />
          </mxGeometry>
        </mxCell>
        <mxCell id="RODY-y2PRNk4jqzbHSB5-84" value="" style="curved=1;endArrow=classic;html=1;rounded=0;entryX=0.5;entryY=1;entryDx=0;entryDy=0;" edge="1" parent="WIyWlLk6GJQsqaUBKTNV-1" target="RODY-y2PRNk4jqzbHSB5-66">
          <mxGeometry width="50" height="50" relative="1" as="geometry">
            <mxPoint x="1640" y="870" as="sourcePoint" />
            <mxPoint x="1690" y="780" as="targetPoint" />
            <Array as="points">
              <mxPoint x="1630" y="865.0000000000005" />
              <mxPoint x="1700" y="850" />
            </Array>
          </mxGeometry>
        </mxCell>
        <mxCell id="RODY-y2PRNk4jqzbHSB5-85" value="" style="curved=1;endArrow=classic;html=1;rounded=0;entryX=0.5;entryY=0;entryDx=0;entryDy=0;" edge="1" parent="WIyWlLk6GJQsqaUBKTNV-1" target="RODY-y2PRNk4jqzbHSB5-75">
          <mxGeometry width="50" height="50" relative="1" as="geometry">
            <mxPoint x="1820" y="665" as="sourcePoint" />
            <mxPoint x="1770" y="615" as="targetPoint" />
            <Array as="points">
              <mxPoint x="1770" y="665" />
              <mxPoint x="1580" y="670" />
              <mxPoint x="1420" y="630" />
              <mxPoint x="1280" y="630" />
            </Array>
          </mxGeometry>
        </mxCell>
        <mxCell id="RODY-y2PRNk4jqzbHSB5-86" value="&lt;div&gt;Custom Workout is added&lt;/div&gt;&lt;div&gt;to user&#39;s custom workout dashboard&lt;br&gt;&lt;/div&gt;" style="edgeLabel;html=1;align=center;verticalAlign=middle;resizable=0;points=[];" vertex="1" connectable="0" parent="RODY-y2PRNk4jqzbHSB5-85">
          <mxGeometry x="-0.3627" y="-1" relative="1" as="geometry">
            <mxPoint as="offset" />
          </mxGeometry>
        </mxCell>
      </root>
    </mxGraphModel>
  </diagram>
</mxfile>
